<?xml version="1.0" encoding="UTF-8" standalone="no"?>
<!-- Created with Inkscape (http://www.inkscape.org/) -->

<svg
   version="1.1"
   id="svg2"
   width="1600"
   height="1066.6667"
   viewBox="0 0 1600 1066.6667"
   sodipodi:docname="background.eps"
   xmlns:inkscape="http://www.inkscape.org/namespaces/inkscape"
   xmlns:sodipodi="http://sodipodi.sourceforge.net/DTD/sodipodi-0.dtd"
   xmlns="http://www.w3.org/2000/svg"
   xmlns:svg="http://www.w3.org/2000/svg">
  <defs
     id="defs6">
    <pattern
       patternTransform="matrix(10,0,0,10,9969,3545)"
       patternUnits="userSpaceOnUse"
       x="0"
       y="0"
       width="1200"
       height="1200"
       id="pattern104">
      <g
         transform="scale(0.1)"
         id="g102">
        <path
           d="m 8837.41,345.75 c -22.61,52.125 -92.8,85.523 -146.25,57.621 C 8486.8,296.695 8306.88,147.371 8192.77,-55.4375 8074.06,-266.402 8046.54,-520.066 8131.48,-748 c 49.92,-133.969 253.79,-45.32 203.87,88.629 -133.98,359.555 141.3,700.6288 444.44,858.867 53.18,27.762 82.72,88.383 57.62,146.254"
           style="fill:#eec1a3;fill-opacity:1;fill-rule:nonzero;stroke:none"
           id="path14" />
        <path
           d="m 6053.78,-285.168 c 12.46,23.219 25.09,46.25 37.97,69.098 -60.5,19.605 -124.68,25.05 -187.27,9.765 -69.42,-16.961 -132.24,-54.843 -178.2,-109.593 -38.73,-46.137 -73.71,-120.43 -51.31,-180.754 5.78,-15.586 13.9,-23.633 33.96,-33.688 15.01,-7.527 46.16,-13.625 59.76,-13.746 58.46,-0.523 101.68,15.035 146.42,56.231 60.85,56.023 100.08,130.792 138.67,202.687 z m 1095.55,764.137 c 179.81,-38.121 325.65,-173.492 354.51,-357.086 8.62,-54.8439 -43.61,-105.4103 -95.02,-108.9103 -58.57,-3.98832 -100.34,40.4961 -108.91,95.0233 -12.67,80.543 -89.69,139.508 -163.01,163.453 -103.83,33.922 -217.01,2.098 -312.49,-42.078 -174.25,-80.629 -329.28,-219.41787 -445.97,-374.172 254.64,-212.262 330.62,-602.578 270.51,-922.179 -38.52,-204.8 -138.26,-395.76 -300.3,-528.96 -155.39,-127.73 -365.68,-187.21 -563.82,-147.75 -129.07,25.7 -88.35,226.07 40.83,200.34 177.39,-35.33 357.35,46.01 471.97,181.38 122.61,144.8 171.03,343.3 166.81,529.9 -3.85,170.437 -47.67,350.906 -165.35,479.976 -10.1,11.078 -20.86,21.793 -32.13,32.114 -72.95,-133.555 -138.84,-275.028 -268.26,-361.551 -133.04,-88.946 -343.07,-97.657 -458.82,25.593 -153,162.918 -51.12,411.352 96.83,537.383 153.56,130.8128 363.4,152.8284 549.01,84.887 5.83,-2.1289 11.39,-4.5781 17.1,-6.8476 105.64,145.5786 239.57,272.8046 389.62,371.7346 160.93,106.109 360.9,189.297 556.89,147.75"
           style="fill:#c1d5ea;fill-opacity:1;fill-rule:nonzero;stroke:none"
           id="path16" />
        <path
           d="m 13094.2,7772.33 c 22.3,-14.01 44.4,-28.17 66.3,-42.57 23.7,59.02 33.5,122.69 22.5,186.17 -12.2,70.42 -45.7,135.66 -97.2,185.24 -43.4,41.78 -115.2,81.72 -176.9,63.47 -15.9,-4.71 -24.5,-12.26 -35.9,-31.59 -8.5,-14.47 -16.7,-45.14 -17.8,-58.69 -4.5,-58.29 8.1,-102.47 46.2,-149.91 51.7,-64.51 123.7,-108.73 192.8,-152.12 z m 687.9,-1144.93 c -50.2,-176.81 -195.2,-313.11 -380.3,-329.43 -55.3,-4.88 -102.3,50.67 -102.3,102.2 0,58.7 47.3,97.36 102.3,102.21 81.2,7.16 145.2,80 174.1,151.52 40.9,101.29 16.8,216.37 -20.7,314.63 -68.7,179.32 -196.6,343.42 -343.1,470.36 -229,-239.63 -623.6,-288.92 -938.4,-207.23 -201.7,52.35 -385.4,164.82 -507.3,335.55 -116.9,163.7 -162,377.55 -109.1,572.54 34.4,127.03 231.5,72.79 197.1,-54.34 -47.3,-174.58 21.6,-359.65 148.9,-483.2 136.1,-132.16 330.9,-193.96 517.3,-202.43 170.3,-7.74 353.4,23.72 490.1,132.36 11.8,9.32 23.2,19.33 34.2,29.87 -128.2,81.86 -264.9,157.21 -342.4,292.21 -79.7,138.78 -74.2,348.91 56.7,456.01 172.9,141.58 413.8,23.06 529.5,-133.11 120.1,-162.09 127.8,-372.94 47.4,-553.51 -2.5,-5.66 -5.3,-11.05 -8,-16.59 138.1,-115.29 255.9,-257.56 344.4,-413.97 95,-167.77 164.4,-372.94 109.6,-565.65"
           style="fill:#e6a67b;fill-opacity:1;fill-rule:nonzero;stroke:none"
           id="path18" />
        <path
           d="m 2779.21,8033.24 c -50.39,-38.4 -54.42,-105.58 -21.02,-155.74 184.44,-277.11 285.43,-610.13 286.39,-943.12 1.01,-348.39 -119.47,-677.74 -346.4,-941.79 -154.79,-180.08 -346.34,-324.71 -542.3,-456.94 -118.65,-80.05 16.47,-256.55 134.72,-176.76 362.12,244.33 704.79,546.39 865.06,964.01 135.8,353.86 139.13,744.64 43.07,1108.52 -54.71,207.23 -145.09,402.48 -263.78,580.8 -33.3,50.02 -110.17,55.75 -155.74,21.02"
           style="fill:#e47c98;fill-opacity:1;fill-rule:nonzero;stroke:none"
           id="path20" />
        <path
           d="m 1027.69,-1055.04 c 41.45,47.91 31.63,114.489 -11.33,156.751 C 779.063,-664.844 612,-359.566 542.848,-33.8438 470.492,306.949 520.949,654 688.984,958.934 803.59,1166.9 961.457,1347.71 1126.18,1517.27 1225.91,1619.94 1057.5,1765.01 958.102,1662.69 653.715,1349.36 380.188,983.512 308.863,541.918 248.43,167.746 325.223,-215.434 493.785,-551.918 c 96.004,-191.629 224.453,-364.219 377.16,-514.442 42.832,-42.14 119.254,-32.01 156.745,11.32"
           style="fill:#fae285;fill-opacity:1;fill-rule:nonzero;stroke:none"
           id="path22" />
        <path
           d="m 5744.92,9038.11 c -38.31,94.52 -125.31,165.02 -223.28,189.08 -16.75,-11.94 -38.55,-18.75 -65.4,-17.48 -146.18,6.93 -289.05,-94.2 -309.26,-244.48 -17.31,-128.8 48.57,-260.36 165.43,-318.04 111.47,-54.99 258.48,-41.74 349.8,45.38 90.47,86.31 130.63,227.28 82.71,345.54 z m -2.8,-563.91 c -180.56,-119.8 -438.18,-104.37 -609.41,24.27 -175.79,132.07 -256.99,378.84 -183.53,588.64 64.85,185.19 236.95,320.47 429.82,342.24 17.81,18.24 43.38,29.9 76.91,29.06 240.87,-6.05 473.48,-180.34 520.3,-422.64 41.55,-215.01 -51.24,-440.27 -234.09,-561.57"
           style="fill:#efcee1;fill-opacity:1;fill-rule:nonzero;stroke:none"
           id="path24" />
        <path
           d="m 8235.07,7546.23 c -234.75,-58.99 -473.34,-100.67 -714.6,-121 -83.95,-7.07 -214.32,-36.62 -289.65,15.34 -60.44,41.68 -78.83,131.06 -93.41,198.1 -103.49,475.72 -158.74,967.32 -198.48,1452.02 -22.85,278.69 -37.11,558.02 -43.36,837.57 -3.19,142.84 -225.45,143.34 -222.25,0 12.09,-540.21 55.74,-1078.92 128.9,-1614.25 34.48,-252.24 66.83,-509.95 126.21,-757.74 23.76,-99.14 64.6,-203.72 143.46,-272.26 91.07,-79.14 206.4,-95.46 323.21,-89.85 302.59,14.51 605.5,63.98 899.05,137.76 138.63,34.84 79.89,249.25 -59.08,214.31"
           style="fill:#fae285;fill-opacity:1;fill-rule:nonzero;stroke:none"
           id="path26" />
        <path
           d="m 6504.17,7365.86 c -214.39,129.37 -444.63,257.13 -696.07,292.46 -256.54,36.05 -493.08,-44.94 -677.22,-226.63 -172.84,-170.55 -303.31,-391.25 -429.92,-596.7 -135.34,-219.63 -259.45,-446.16 -371.81,-678.39 -129.66,-267.97 -243.83,-543.58 -342.52,-824.42 -19.89,-56.62 22.82,-121.56 77.8,-136.59 61.42,-16.79 116.62,20.97 136.59,77.8 159.09,452.73 361.49,889.11 604,1303.23 115.74,197.64 236.46,398.36 377.8,579 127.93,163.51 287.85,293.41 505,290.88 254.64,-2.96 492.92,-145.07 704.43,-272.69 122.79,-74.08 234.36,118.18 111.92,192.05"
           style="fill:#b6d6d0;fill-opacity:1;fill-rule:nonzero;stroke:none"
           id="path28" />
        <path
           d="m 8869.71,6574.9 c -9.9,-7.5 -21.77,-13.73 -36.03,-18.07 -285.37,-86.77 -553.62,-214.62 -799.99,-380.16 341.75,-182.09 695.26,-341.18 1058.14,-476.38 3.12,236.78 -39.93,473.79 -124.78,694.87 -19.47,50.73 -43.28,144.54 -91.23,176.26 -1.98,1.32 -4.04,2.43 -6.11,3.48 z m 276.91,-1129.88 c -473.39,166.56 -931.53,373.58 -1369.38,618.79 -76.15,42.64 -83.39,139.81 -13.79,192.83 125.85,95.86 258.99,181.96 397.7,257.84 13.43,21.83 34.35,39.72 59.4,51.08 92.39,41.92 184.78,83.85 277.17,125.77 76.03,34.49 152.41,75.73 233.66,96.84 80.04,20.79 164.97,23.26 240.14,-16.09 93.46,-48.91 139.43,-145.98 178.9,-238.47 135.51,-317.53 183.59,-665.81 153.29,-1008.71 -6.95,-78.59 -96.27,-101.29 -157.09,-79.88"
           style="fill:#b4b6d9;fill-opacity:1;fill-rule:nonzero;stroke:none"
           id="path30" />
        <path
           d="m 6739.4,5270.96 c -17.26,44.79 -54.5,96.05 -93.92,122.9 -41.54,28.28 -123.4,61.07 -169.73,24.4 -38.06,-30.11 -86.62,-41.85 -128.39,-20.94 -80.23,-52.98 -134.72,-143.67 -140.64,-238.88 -7.37,-118.4 59,-215.53 164.77,-256.24 110.62,-42.58 238.56,-32.16 321.41,51.72 79.35,80.34 87.41,210.93 46.5,317.04 z m 96.32,-488.12 c -157.74,-143.43 -391.63,-159.27 -580.41,-71.26 -199.44,92.96 -299.07,303.31 -262.33,516.99 34.72,201.94 194.94,388.02 400.26,426.1 26.78,4.96 53.77,2.17 76.93,-8.04 197.92,38.75 402.92,-109.29 478.81,-304.26 72.11,-185.25 37.7,-422.28 -113.26,-559.53"
           style="fill:#e6a67b;fill-opacity:1;fill-rule:nonzero;stroke:none"
           id="path32" />
        <path
           d="m 10915.9,8658.9 c -107.6,381.36 -337.7,737.21 -694.2,926.93 -195.9,104.25 -420.99,157.82 -642.66,130.64 -59.56,-7.3 -111.12,-45.85 -111.12,-111.12 0,-54.39 51.15,-118.48 111.12,-111.13 343.97,42.17 676.86,-128.86 883.56,-400.36 225.3,-295.91 307.5,-674.28 314.5,-1039.57 4.7,-243.57 -20.5,-486.42 -52.4,-727.55 -7.9,-59.6 56.7,-111.12 111.2,-111.12 66.5,0 103.2,51.34 111.1,111.12 58.4,441.51 91.4,897.93 -31.1,1332.16"
           style="fill:#efcee1;fill-opacity:1;fill-rule:nonzero;stroke:none"
           id="path34" />
        <path
           d="m 9707.05,8267.01 c 0.52,114.36 -117.88,203.54 -225.43,191.92 -51.31,-5.54 -93.55,-32.86 -123.27,-70.6 3.1,-32.27 -8.29,-65.82 -30.83,-92.35 -10.3,-12.12 -15.54,-26.79 -17.24,-42.38 -0.32,-18.51 1.77,-36.88 6.56,-54.43 0.21,-0.8 0.31,-1.54 0.51,-2.33 6.71,-20.5 17.06,-39.63 28.26,-54.07 35.25,-45.41 93.38,-75.38 150.41,-81.47 113.51,-12.13 210.51,91.59 211.03,205.71 z m 90.33,-312.81 c -140.81,-138.18 -365.96,-149.92 -527.13,-39.2 -70.66,48.54 -124.23,117.04 -153.65,192.8 -5.88,9.26 -10.71,19.96 -14.07,32.28 -58.71,215.17 65.22,452.2 277.81,522.77 181.26,60.18 392.85,-29.61 491.62,-188.53 101.77,-163.76 60.2,-387.85 -74.58,-520.12"
           style="fill:#c19ec8;fill-opacity:1;fill-rule:nonzero;stroke:none"
           id="path36" />
        <path
           d="m 8327.23,9329.79 c -148.47,-31.64 -304.97,44.74 -396.29,161.21 -101.82,129.86 -127.78,310.49 -104.41,470.19 27.73,189.41 131.62,367.01 116.8,562.91 -13.26,175.4 -102.87,342.2 -277.95,398.8 -136.43,44 -194.86,-170.5 -59.08,-214.3 142.22,-46 121.94,-254.7 92.29,-368.3 -51.26,-196.4 -119.11,-378.74 -95.88,-585.9 21.42,-190.91 101.19,-376.88 252.17,-500.8 149.91,-123.03 340.15,-178.88 531.44,-138.12 139.81,29.8 80.64,244.09 -59.09,214.31"
           style="fill:#e6a67b;fill-opacity:1;fill-rule:nonzero;stroke:none"
           id="path38" />
        <path
           d="m 12327,5679.03 c -27.9,109.25 -54.8,217.77 -112.7,315.61 -96.3,162.78 -257.5,284.62 -437.1,338.78 -184.5,55.64 -383.8,48.6 -555.4,-41.88 -99.1,-52.26 -187.5,-125.36 -292.8,-165.36 -72.7,-27.57 -152.9,-36.8 -230.4,-29.71 -191.9,17.55 -362.6,119.85 -462.8,287.03 -30.9,51.52 -112.6,52.12 -154.7,18.52 -51.4,-40.97 -48.1,-104.15 -17.2,-155.83 198.4,-330.85 661.4,-470.2 1004,-301.76 105.3,51.8 196.7,129.9 306.3,173.06 72,28.33 151.5,36.25 228.3,27.71 165.1,-18.35 324,-106.89 415.9,-248.92 58.5,-90.35 77.7,-200.4 105.2,-302.64 36.8,-136.85 84.9,-255.56 187.9,-355.76 43,-41.78 121.9,-21.42 153.9,22.15 39,52.93 19.9,113.4 -23.2,155.34 -68.6,66.74 -92.4,174.35 -115.2,263.66"
           style="fill:#b6d6d0;fill-opacity:1;fill-rule:nonzero;stroke:none"
           id="path40" />
        <path
           d="m 10734.3,3312.78 c -24.3,95.93 -53.8,190.49 -87.5,283.52 -69.7,192.46 -155.7,378.94 -250.5,560.23 -104.7,200.32 -220,394.81 -335.5,589.05 -72.99,122.85 -265.2,11.19 -191.88,-112.17 186.18,-313.22 376.08,-628.66 513.88,-966.96 69.7,-171.17 130.4,-349.74 164,-531.86 15.8,-85.81 7.1,-160.48 -39.6,-234.66 -45.5,-72.36 -106.2,-135.97 -164.1,-198.49 -140.7,-151.94 -295.2,-291.32 -462.15,-413.84 -48.32,-35.45 -72.4,-96.41 -39.87,-152.03 27.89,-47.67 103.39,-75.58 152.04,-39.87 163.58,120.05 318.08,251.66 459.08,397.72 134.7,139.58 296.6,297.99 320.8,499.69 12.9,107.29 -12.6,216.06 -38.7,319.67"
           style="fill:#f1cb34;fill-opacity:1;fill-rule:nonzero;stroke:none"
           id="path42" />
        <path
           d="m 9221.68,4553.08 c -191.39,114.04 -422.88,132.8 -629.05,47.27 -177.2,-73.51 -307.23,-224.22 -414.28,-378.05 -103.53,-148.76 -191.19,-314 -321.7,-441.78 -118.27,-115.78 -273.06,-184.08 -438.95,-191.98 -183.26,-8.74 -373.6,46.1 -509.04,173.22 -43.73,41.05 -109.32,51.43 -156.92,9.04 -41.74,-37.19 -52.98,-115.67 -9.03,-156.92 281.22,-263.95 720.1,-325.41 1062.96,-144.75 172.08,90.67 296.83,241.35 404.46,399.65 101.69,149.57 190.83,315.3 328.2,436.13 156.09,137.3 378.74,171.17 560.97,62.58 122.69,-73.11 245.39,112.29 122.38,185.59"
           style="fill:#efcee1;fill-opacity:1;fill-rule:nonzero;stroke:none"
           id="path44" />
        <path
           d="m 12360.7,4489.68 c -15.1,54.79 -79.9,97.73 -136.7,77.62 -217.4,-76.88 -416.5,-199.43 -558,-384.18 -147.2,-192.18 -210.1,-439.45 -158,-677.06 30.5,-139.66 244.9,-80.56 214.3,59.08 -82.1,374.82 238.4,673.8 560.7,787.85 56.6,20 94.4,75.87 77.7,136.69"
           style="fill:#e47c98;fill-opacity:1;fill-rule:nonzero;stroke:none"
           id="path46" />
        <path
           d="m 1214.66,9884.63 c -7.29,56.35 -65.48,107.88 -124.57,95.88 C 864.184,9934.6 649.938,9840.95 484.121,9677.68 311.629,9507.84 214.934,9271.72 233.418,9029.18 c 10.863,-142.55 231.309,-113.83 220.449,28.7 -29.16,382.6 329.813,634.09 664.913,702.18 58.79,11.94 103.97,62.01 95.88,124.57"
           style="fill:#efcee1;fill-opacity:1;fill-rule:nonzero;stroke:none"
           id="path48" />
        <path
           d="m 8837.41,12345.7 c -22.61,52.2 -92.8,85.6 -146.25,57.7 -204.36,-106.7 -384.28,-256 -498.39,-458.8 -118.71,-211 -146.23,-464.7 -61.29,-692.6 49.92,-134 253.79,-45.3 203.87,88.6 -133.98,359.6 141.3,700.7 444.44,858.9 53.18,27.8 82.72,88.4 57.62,146.2"
           style="fill:#eec1a3;fill-opacity:1;fill-rule:nonzero;stroke:none"
           id="path50" />
        <path
           d="m 11879.3,2903.54 c -143,0 -143.3,-222.25 0,-222.25 143,0 143.2,222.25 0,222.25"
           style="fill:#f1cb34;fill-opacity:1;fill-rule:nonzero;stroke:none"
           id="path52" />
        <path
           d="m 5437.98,3327.34 c -113.67,119.38 -308.88,131.3 -462.07,106.79 -148.63,-23.78 -288.87,-80.95 -410.77,-166.27 74.23,-75.89 154.92,-144.8 238.41,-203.05 148.39,-103.52 348.12,-191.23 522.26,-96.45 130.57,71.06 230.51,234.69 112.17,358.98 z m 237.83,-300.38 c -89.78,-203.5 -322.27,-335.07 -542.15,-320.43 -247.23,16.45 -457.93,158.76 -634.8,322.49 -32.79,30.35 -65.33,62.21 -97.24,95.43 -150.06,-159.93 -269.01,-342.76 -449.6,-473.28 -174.9,-126.4 -386.47,-197.96 -600.71,-215.49 -426.75,-34.91 -843.83,188.35 -1073.74,544.7 -77.85,120.66 114.62,231.96 191.91,112.17 266.53,-413.11 818.16,-556.78 1251.58,-323.79 214.45,115.27 342.89,311.69 501.33,488.61 10.85,12.12 21.96,23.99 33.25,35.68 -235.19,303.25 -385.22,681.69 -232.46,1057.1 22.71,55.82 73.09,95.09 136.7,77.61 53.02,-14.57 100.24,-81.08 77.61,-136.69 -95.75,-235.32 -44.81,-489.35 80.81,-703.19 30.27,-51.54 64.45,-102.28 101.68,-151.53 124.36,90.84 265.04,158.31 416.32,195.58 212.52,52.37 453.23,52.7 647.21,-60.66 191.9,-112.14 284.3,-335.78 192.3,-544.31"
           style="fill:#f1cb34;fill-opacity:1;fill-rule:nonzero;stroke:none"
           id="path54" />
        <path
           d="m 3332.26,11365.6 c -125.17,41.5 -178.83,-155.9 -54.34,-197.1 194.48,-64.3 296.79,-289.3 270.08,-483.4 -31.84,-231.5 -209.05,-416.4 -407.06,-523.4 -239.37,-129.3 -507.44,-150.8 -770.99,-192.29 -252.3,-39.75 -488.17,-136.29 -627.83,-360.96 -136.05,-218.86 -152.3,-500.2 -36.67,-730.52 59.03,-117.59 235.42,-14.2 176.5,103.16 -89.71,178.7 -55.98,406.15 63.4,563.75 155.68,205.53 435.56,221.59 670.54,253.82 271.76,37.26 548.71,109.65 770.5,278.44 205.36,156.2 359.35,389.8 369.62,653.3 10.74,275.4 -159.39,547.7 -423.75,635.2"
           style="fill:#b6d6d0;fill-opacity:1;fill-rule:nonzero;stroke:none"
           id="path56" />
        <path
           d="m 11885.9,10311.4 c -77.6,381.3 -199.9,751.4 -358.7,1106.5 -22.5,50.4 -95.8,62.3 -139.8,36.6 -51.9,-30.3 -59.3,-89.2 -36.7,-139.8 138.4,-309.4 244.4,-633.3 318.1,-964 15.4,-69.2 44.8,-152.5 34.6,-224.4 -8.3,-58.4 -72.9,-79 -119.5,-101.7 -154.7,-75.02 -312.1,-144.04 -471.9,-207.25 -51.3,-20.28 -87.2,-68.39 -71.4,-125.72 13.4,-48.84 74.1,-91.8 125.7,-71.38 182.1,72.01 362.5,149.62 538.2,236.33 81.6,40.3 153.9,92.6 186.3,181.22 32.3,88.3 13.2,184.4 -4.9,273.6"
           style="fill:#b4b6d9;fill-opacity:1;fill-rule:nonzero;stroke:none"
           id="path58" />
        <path
           d="m 9839.02,10498.4 c 0.22,15.2 -0.4,30.6 -0.63,45.7 -4.55,303 -32.1,605.7 -79.43,905 -112.28,-116.2 -223.51,-233.4 -333.47,-351.8 -69.82,-75.2 -139.16,-150.9 -208.02,-226.9 -31.1,-34.4 -62.1,-68.8 -93,-103.4 -11.82,-13.2 -23.59,-26.4 -35.38,-39.6 7.19,-1.9 13.88,-3.6 19.62,-5.4 45.55,-13.9 91.1,-27.9 136.65,-41.8 87.84,-26.9 175.68,-53.8 263.52,-80.7 87.84,-26.9 175.68,-53.8 263.53,-80.7 22.2,-6.8 44.41,-13.6 66.61,-20.4 z m 76.92,-209.9 c -62.32,-14.3 -121.7,10.6 -180.75,28.7 -247.26,75.7 -494.52,151.4 -741.77,227.1 -62.6,19.2 -127.1,36 -153.75,103.2 -26.27,66.3 14.24,122.1 56.13,169.3 85.68,96.6 172.14,192.4 259.36,287.6 172.2,187.9 347.42,373 525.37,555.5 36.27,37.2 87.86,54 134.06,25.7 52.31,10.9 113.59,-13.2 125.58,-81 48.26,-272.6 79.93,-547.9 93.53,-824.4 3.2,-63.6 5.4,-127.2 6.7,-190.8 1,-53.2 7.3,-110.2 -3.2,-162.7 -13.2,-65.7 -53.24,-122.5 -121.26,-138.2"
           style="fill:#e47c98;fill-opacity:1;fill-rule:nonzero;stroke:none"
           id="path60" />
        <path
           d="m 4801.9,11031.2 c -131.52,0 -131.74,-204.4 0,-204.4 131.53,0 131.75,204.4 0,204.4"
           style="fill:#e6a67b;fill-opacity:1;fill-rule:nonzero;stroke:none"
           id="path62" />
        <path
           d="m 4426.34,9467.54 c -159.63,271.77 -575.07,270.31 -842.8,218.96 -54.24,-10.4 -85.18,-75.53 -71.39,-125.72 15.6,-56.77 71.33,-81.82 125.73,-71.39 130.63,25.06 272.01,28.74 402.12,-1.92 81.08,-19.11 185.39,-56.9 219.57,-141.27 21.64,-53.41 8.44,-113.36 -5.67,-166.79 -19.42,-73.49 -43.49,-145.9 -65.63,-218.6 -45.62,-149.77 -91.23,-299.54 -136.85,-449.31 -38.41,-126.12 158.83,-180.03 197.11,-54.34 53.55,175.82 107.1,351.64 160.64,527.45 47.8,156.93 107.64,328.93 17.17,482.93"
           style="fill:#b4b6d9;fill-opacity:1;fill-rule:nonzero;stroke:none"
           id="path64" />
        <path
           d="m 8705.81,2712.78 c -14.34,4.94 -28.2,12.52 -40.77,22.32 -92.25,71.82 -249.68,43.11 -335.95,-39.76 -86.9,-83.46 -94.19,-214.81 -37.37,-322.86 61.21,-116.37 174.71,-185.09 306.95,-171.43 123.41,12.74 243.98,101.06 261.95,228.21 16.13,114.08 -44.65,233.64 -154.81,283.52 z m 334.73,-400.46 c -75.6,-203.86 -295.39,-332.26 -510.27,-316.14 -215.68,16.18 -390.92,166.07 -455.92,370.55 -63.85,200.88 7.81,415.35 184.05,531.47 160.48,105.74 367.43,105.9 524.33,0.76 7.06,-1.85 14.06,-4.21 20.91,-7.12 212.74,-90.53 315.8,-366.74 236.9,-579.52"
           style="fill:#f4d4cb;fill-opacity:1;fill-rule:nonzero;stroke:none"
           id="path66" />
        <path
           d="m 5350.71,4685.64 c -4.86,17.31 -13.62,32.34 -26.28,45.09 -20,18.36 -44.58,29.94 -72.27,29.94 l -24.6,0 c -14.07,0.53 -27.2,-2.4 -39.38,-8.8 -12.67,-4.12 -23.63,-11.17 -32.89,-21.14 -9.96,-9.25 -17.01,-20.22 -21.13,-32.89 -6.4,-12.18 -9.33,-25.3 -8.8,-39.37 1.21,-9.06 2.43,-18.12 3.65,-27.18 4.85,-17.31 13.61,-32.34 26.28,-45.09 20,-18.36 44.58,-29.94 72.27,-29.94 l 24.6,0 c 14.07,-0.53 27.19,2.4 39.37,8.8 12.67,4.12 23.64,11.17 32.9,21.14 9.96,9.25 17.01,20.22 21.13,32.89 6.4,12.18 9.33,25.3 8.8,39.38 -1.22,9.05 -2.43,18.11 -3.65,27.17"
           style="fill:#c1d5ea;fill-opacity:1;fill-rule:nonzero;stroke:none"
           id="path68" />
        <path
           d="m 4096.03,7465.6 c -4.86,17.32 -13.62,32.35 -26.28,45.1 -20,18.36 -44.58,29.94 -72.27,29.94 l -24.6,0 c -14.07,0.53 -27.2,-2.41 -39.38,-8.81 -12.67,-4.12 -23.63,-11.16 -32.89,-21.13 -9.97,-9.26 -17.01,-20.22 -21.13,-32.89 -6.4,-12.18 -9.34,-25.31 -8.8,-39.38 1.21,-9.05 2.43,-18.11 3.65,-27.17 4.85,-17.31 13.61,-32.34 26.28,-45.1 20,-18.35 44.58,-29.93 72.27,-29.93 l 24.6,0 c 14.07,-0.53 27.19,2.4 39.37,8.8 12.67,4.12 23.64,11.17 32.9,21.13 9.96,9.26 17.01,20.22 21.13,32.89 6.4,12.18 9.33,25.31 8.8,39.38 -1.22,9.06 -2.43,18.12 -3.65,27.17"
           style="fill:#c1d5ea;fill-opacity:1;fill-rule:nonzero;stroke:none"
           id="path70" />
        <path
           d="m 1906.03,2055.6 c -4.86,17.32 -13.62,32.35 -26.28,45.1 -20,18.36 -44.58,29.94 -72.28,29.94 l -24.59,0 c -14.07,0.53 -27.2,-2.41 -39.38,-8.81 -12.67,-4.12 -23.63,-11.16 -32.89,-21.13 -9.97,-9.26 -17.01,-20.22 -21.13,-32.89 -6.4,-12.18 -9.34,-25.31 -8.8,-39.38 1.21,-9.05 2.43,-18.11 3.65,-27.17 4.85,-17.31 13.61,-32.34 26.28,-45.1 20,-18.35 44.58,-29.93 72.27,-29.93 l 24.59,0 c 14.08,-0.53 27.2,2.4 39.38,8.8 12.67,4.12 23.64,11.17 32.9,21.13 9.96,9.26 17.01,20.22 21.13,32.9 6.4,12.17 9.33,25.3 8.8,39.37 -1.22,9.06 -2.43,18.12 -3.65,27.17"
           style="fill:#c19ec8;fill-opacity:1;fill-rule:nonzero;stroke:none"
           id="path72" />
        <path
           d="m 11082.2,528.176 c -77.1,110.359 -201,158.211 -331.1,149.027 -6.8,-68.289 -10.6,-137.16 -7.9,-205.504 3.1,-77.246 11.7,-165.629 58.3,-230.402 70,-97.168 180.7,-78.363 264.3,-6.664 33.1,28.426 60.3,73.187 65.3,123.801 6,60.261 -14.7,120.671 -48.9,169.742 z M 9503.4,653.598 c 133.41,-95.817 312.62,-227.758 487.02,-174.356 119.48,36.598 207.38,143.672 302.38,219.18 80.6,64.105 174.1,117.008 272.7,148.094 5.7,33.66 11.8,66.875 18.2,99.312 41.5,211.342 103.5,428.492 207.1,618.352 99.1,181.5 241.2,343.03 438.6,418.18 181.4,69.1 382.1,59.54 545.9,-47.97 46.4,-30.43 49.5,-102.78 17.5,-143.5 -36,-46.04 -97.3,-47.81 -143.5,-17.54 -126,82.73 -302.2,55.4 -425.4,-19.24 -171.1,-103.69 -268.7,-291.38 -335.9,-473.16 -48,-129.52 -84.1,-263.51 -108.7,-399.489 127.2,1.246 252.3,-33.664 356.7,-115.652 142.4,-111.938 235.9,-303.704 187.7,-485.274 -43.1,-162.363 -191.2,-286.47641 -357.4,-307.3983 -212.3,-26.7344 -362.7,137.8433 -407.4,331.5393 -22.7,98.387 -27,203.125 -21,307.996 -85.1,-45.742 -160.3,-109.797 -236,-174.988 -141.7,-121.832 -306.88,-204.086 -497.36,-163.176 -158.94,34.133 -296.92,124.543 -427.11,218.043 -107.28,77.043 19.54,237.48 125.97,161.047"
           style="fill:#b6d6d0;fill-opacity:1;fill-rule:nonzero;stroke:none"
           id="path74" />
        <path
           d="m 6053.78,11714.8 c 12.46,23.3 25.09,46.3 37.97,69.1 -60.5,19.6 -124.68,25.1 -187.27,9.8 -69.42,-17 -132.24,-54.8 -178.2,-109.6 -38.73,-46.1 -73.71,-120.4 -51.31,-180.8 5.78,-15.5 13.9,-23.6 33.96,-33.6 15.01,-7.6 46.16,-13.7 59.76,-13.8 58.46,-0.5 101.68,15 146.42,56.2 60.85,56.1 100.08,130.8 138.67,202.7 z m 1095.55,764.2 c 179.81,-38.2 325.65,-173.5 354.51,-357.1 8.62,-54.9 -43.61,-105.4 -95.02,-108.9 -58.57,-4 -100.34,40.5 -108.91,95 -12.67,80.5 -89.69,139.5 -163.01,163.5 -103.83,33.9 -217.01,2 -312.49,-42.1 -174.25,-80.7 -329.28,-219.4 -445.97,-374.2 254.64,-212.3 330.62,-602.6 270.51,-922.2 -38.52,-204.8 -138.26,-395.7 -300.3,-528.9 -155.39,-127.8 -365.68,-187.3 -563.82,-147.8 -129.07,25.7 -88.35,226.1 40.83,200.4 177.39,-35.4 357.35,46 471.97,181.3 122.61,144.8 171.03,343.3 166.81,529.9 -3.85,170.5 -47.67,350.9 -165.35,480 -10.1,11.1 -20.86,21.8 -32.13,32.1 -72.95,-133.5 -138.84,-275 -268.26,-361.5 -133.04,-89 -343.07,-97.7 -458.82,25.6 -153,162.9 -51.12,411.3 96.83,537.3 153.56,130.9 363.4,152.9 549.01,84.9 5.83,-2.1 11.39,-4.5 17.1,-6.8 105.64,145.6 239.57,272.8 389.62,371.7 160.93,106.1 360.9,189.3 556.89,147.8"
           style="fill:#c1d5ea;fill-opacity:1;fill-rule:nonzero;stroke:none"
           id="path76" />
        <path
           d="m 1094.16,7772.33 c 22.32,-14.01 44.44,-28.17 66.36,-42.57 23.67,59.02 33.46,122.69 22.46,186.17 -12.2,70.42 -45.73,135.66 -97.23,185.24 -43.4,41.78 -115.145,81.72 -176.848,63.47 -15.945,-4.71 -24.523,-12.26 -35.918,-31.59 -8.531,-14.47 -16.726,-45.14 -17.773,-58.69 -4.496,-58.29 8.09,-102.47 46.152,-149.91 51.762,-64.51 123.687,-108.73 192.797,-152.12 z M 1782.1,6627.4 c -50.25,-176.81 -195.22,-313.11 -380.35,-329.43 -55.3,-4.88 -102.2,50.67 -102.2,102.2 0,58.7 47.22,97.36 102.2,102.21 81.22,7.16 145.28,80 174.15,151.52 40.9,101.29 16.84,216.37 -20.75,314.63 -68.6,179.32 -196.54,343.42 -343,470.36 -229.076,-239.63 -623.65,-288.92 -938.431,-207.23 -201.7112,52.35 -385.449,164.82 -507.336,335.55 -116.875,163.7 -161.934,377.55 -109.102,572.54 34.414,127.03 231.551,72.79 197.106,-54.34 -47.297,-174.58 21.621,-359.65 148.89034,-483.2 C 139.418,7470.05 334.164,7408.25 520.621,7399.78 c 170.309,-7.74 353.336,23.72 490.109,132.36 11.73,9.32 23.15,19.33 34.21,29.87 -128.284,81.86 -264.952,157.21 -342.487,292.21 -79.699,138.78 -74.121,348.91 56.711,456.01 172.934,141.58 413.876,23.06 529.566,-133.11 120.07,-162.09 127.78,-372.94 47.39,-553.51 -2.53,-5.66 -5.35,-11.05 -8,-16.59 138.07,-115.29 255.9,-257.56 344.41,-413.97 94.93,-167.77 164.34,-372.94 109.57,-565.65"
           style="fill:#e6a67b;fill-opacity:1;fill-rule:nonzero;stroke:none"
           id="path78" />
        <path
           d="m 3064.26,1666.08 c -28.02,5.59 -49.71,25.47 -62.33,50.27 -92.72,13 -194.64,-70.63 -223.16,-157.75 -46.99,-143.53 44.68,-308.27 188.23,-350.1 127.18,-37.06 267.54,48.31 296.18,178.12 28.95,131.26 -74.02,254.53 -198.92,279.46 z m 406.71,-264.43 c -15.02,-186.94 -160.22,-355.28 -344.15,-396.39 -194.84,-43.549 -397.53,57.77 -497.04,227.64 -104.14,177.75 -86.09,412.63 60.1,561.35 138.37,140.75 372.51,173.06 523.84,37.06 159.23,-75.97 271.58,-251.36 257.25,-429.66"
           style="fill:#e47c98;fill-opacity:1;fill-rule:nonzero;stroke:none"
           id="path80" />
        <path
           d="M 4347.16,-103.273 C 4184.41,36.375 3968.64,104.813 3755.13,88.668 3556.54,73.6484 3385.36,-28.6484 3214.8,-121.777 3045.63,-214.152 2877.9,-285.594 2681.97,-244.613 2495.88,-205.695 2319.64,-85.7969 2196.31,56.7109 2066.29,206.949 1976.27,398.309 1996.69,600.676 c 13.17,130.512 -189.1,160.179 -202.34,28.98 -43,-426.152 255.78,-812.457 623.26,-995.191 206.15,-102.512 435.55,-126.074 653.73,-49.11 186.09,65.649 344.89,189.18 529.06,259.243 212.41,80.8043 447.01,40.14 619.61,-107.961 100.12,-85.918 226.81,74.578 127.15,160.09"
           style="fill:#efcee1;fill-opacity:1;fill-rule:nonzero;stroke:none"
           id="path82" />
        <path
           d="m 4851.81,1022.28 c 4.25,2.17 9.08,5.33 14.09,8.53 -19.55,29.84 -47.65,58.87 -65.54,82.01 -37.82,48.92 -77.47,96.51 -118.26,142.97 -29.08,33.12 -67.96,94.61 -111.69,109.41 -15.24,5.16 -31.49,-8.02 -45.8,-25.33 -64.59,-78.1 -84.4,-200.73 -105.1,-296.69 -14.99,-69.469 -25.03,-139.461 -31.05,-209.867 74.8,23.519 148.75,49.664 221.65,78.71 53.11,21.165 105.41,44.235 157.09,68.68 28.41,13.438 56.62,27.297 84.61,41.577 z M 5066.3,931.395 C 5021.79,857.344 4910.66,822.426 4836.18,788.281 4684.56,718.762 4528.32,660.293 4368.22,613.824 c -45.34,-76.289 -190.8,-58.75 -191.08,52.172 -0.55,214.66 31,434.004 102.18,637.024 50.52,144.1 172.14,314.3 348.9,257.7 84,-26.9 142.21,-96.34 198.41,-160.39 60.83,-69.32 118.45,-141.42 173.64,-215.3 54.65,-73.16 122.07,-160.39 66.03,-253.635"
           style="fill:#e6a67b;fill-opacity:1;fill-rule:nonzero;stroke:none"
           id="path84" />
        <path
           d="m 822.273,2894.3 c -3.015,-3.7 -6.164,-8.54 -9.46,-13.49 29.925,-19.42 67.351,-34.65 93.046,-48.61 54.34,-29.51 109.811,-57.07 165.881,-83.14 39.96,-18.58 100.34,-59.17 146.32,-55.08 16.03,1.43 25.58,20.04 31.7,41.65 27.61,97.51 -3.71,217.72 -23.46,313.88 -14.3,69.61 -33.34,137.71 -56.23,204.56 -58.96,-51.68 -116.09,-105.43 -171.082,-161.4 -40.066,-40.79 -78.621,-82.99 -116.058,-126.2 -20.575,-23.75 -40.797,-47.81 -60.657,-72.17 z m -232.925,-3.32 c 10.867,85.71 98.476,162.47 152.863,223.75 110.719,124.77 230.105,241.27 357.879,348.36 10.72,88.09 150.9,130.7 195.89,29.31 87.06,-196.21 146.65,-409.65 163.38,-624.13 11.88,-152.24 -30.78,-357.04 -215.36,-376.52 -87.71,-9.26 -168.98,30.81 -246.238,66.75 -83.617,38.91 -165.422,81.66 -245.715,127.01 -79.508,44.91 -176.383,97.54 -162.699,205.47"
           style="fill:#c1d5ea;fill-opacity:1;fill-rule:nonzero;stroke:none"
           id="path86" />
        <path
           d="m 2093.76,4012.34 c -1.68,0.1 -2.89,0.3 -3.89,0.56 8.64,-20.09 10.41,-0.96 3.89,-0.56 z m 760.28,219.42 c -182.37,-110.27 -364.75,-220.54 -547.12,-330.81 -86.54,-52.33 -176.6,-112.72 -286.92,-82.39 -89.3,24.54 -138.89,99.07 -168.83,172.83 -30.3,74.63 -50.62,152.27 -81.45,226.92 -32.65,79.07 -71,155.9 -114.17,230.85 -84.91,147.4 -187.34,286.54 -307.03,413.28 -39.98,42.33 -46.84,102.72 0,144.54 41.1,36.7 122.02,42.23 161.9,0 229.68,-243.22 405.92,-521.79 515.09,-824.99 19.61,-54.49 43.54,-114.68 62.75,-165.11 4.82,5.26 24.83,13.48 29.95,16.44 40.34,23.35 79.71,48.1 119.52,72.16 l 500.75,302.78 c 122.44,74.03 236.88,-103.14 115.56,-176.5"
           style="fill:#efcee1;fill-opacity:1;fill-rule:nonzero;stroke:none"
           id="path88" />
        <path
           d="m 8042.5,1200.66 c -404.99,144.73 -804.73,303.95 -1197.62,478.9 -180.27,80.28 -367.39,156.23 -536.96,257.86 -112.96,67.7 -241.59,164.45 -259.5,304.8 -13.66,107.06 41.61,212.68 85.49,306.55 53.92,115.36 107.89,230.71 161.84,346.06 23.37,49.97 14.02,110.2 -36.66,139.84 -44.3,25.91 -116.35,13.56 -139.84,-36.67 -51.11,-109.28 -102.22,-218.56 -153.33,-327.85 -48.27,-103.21 -100.32,-207.15 -116.85,-321.02 -28.77,-198.21 67.68,-371.81 219.61,-493.35 155.51,-124.4 341.02,-201.91 520.77,-284.03 216.56,-98.95 435.2,-193.36 655.53,-283.61 245.51,-100.56 493.35,-195.31 743.18,-284.59 51.98,-18.577 111.88,20.99 125.72,71.38 15.57,56.64 -19.21,107.08 -71.38,125.73"
           style="fill:#c19ec8;fill-opacity:1;fill-rule:nonzero;stroke:none"
           id="path90" />
        <path
           d="m 327,5679.03 c -27.914,109.25 -54.824,217.77 -112.695,315.61 -96.27,162.78 -257.4847,284.62 -437.078,338.78 -184.508,55.64 -383.844,48.6 -555.434,-41.88 -99.113,-52.26 -187.449,-125.36 -292.843,-165.36 -72.65,-27.57 -152.89,-36.8 -230.33,-29.71 -191.88,17.55 -362.59,119.85 -462.81,287.03 -30.88,51.52 -112.64,52.12 -154.76,18.52 -51.36,-40.97 -48.09,-104.15 -17.12,-155.83 198.33,-330.85 661.4,-470.2 1003.922,-301.76 105.32,51.8 196.722,129.9 306.359,173.06 71.976,28.33 151.453,36.25 228.262,27.71 165.093,-18.35 324.0036,-106.89 415.9684,-248.92 58.5039,-90.35 77.668,-200.4 105.1676,-302.64 36.805,-136.85 84.844,-255.56 187.887,-355.76 42.961,-41.78 121.883,-21.42 153.945,22.15 38.954,52.93 19.895,113.4 -23.238,155.34 -68.625,66.74 -92.383,174.35 -115.203,263.66"
           style="fill:#b6d6d0;fill-opacity:1;fill-rule:nonzero;stroke:none"
           id="path92" />
        <path
           d="m 360.66,4489.68 c -15.055,54.79 -79.851,97.73 -136.695,77.62 -217.32437,-76.88 -416.457,-199.43 -557.949,-384.18 -147.192,-192.18 -210.102,-439.45 -158.059,-677.06 30.586,-139.66 244.895,-80.56 214.313,59.08 -82.098,374.82 238.4058,673.8 560.781,787.85 56.554,20 94.328,75.87 77.609,136.69"
           style="fill:#e47c98;fill-opacity:1;fill-rule:nonzero;stroke:none"
           id="path94" />
        <path
           d="m 1027.69,10945 c 41.45,47.9 31.63,114.5 -11.33,156.7 -237.297,233.5 -404.36,538.7 -473.512,864.5 -72.356,340.8 -21.899,687.8 146.136,992.7 114.606,208 272.473,388.8 437.196,558.4 99.73,102.6 -68.68,247.7 -168.078,145.4 -304.387,-313.3 -577.914,-679.2 -649.239,-1120.8 -60.433,-374.2 16.36,-757.3 184.922,-1093.8 96.004,-191.6 224.453,-364.2 377.16,-514.5 42.832,-42.1 119.254,-32 156.745,11.4"
           style="fill:#fae285;fill-opacity:1;fill-rule:nonzero;stroke:none"
           id="path96" />
        <path
           d="m 11082.2,12528.2 c -77.1,110.3 -201,158.2 -331.1,149 -6.8,-68.3 -10.6,-137.2 -7.9,-205.5 3.1,-77.2 11.7,-165.6 58.3,-230.4 70,-97.2 180.7,-78.4 264.3,-6.7 33.1,28.5 60.3,73.2 65.3,123.8 6,60.3 -14.7,120.7 -48.9,169.8 z m -1578.8,125.4 c 133.41,-95.8 312.62,-227.8 487.02,-174.4 119.48,36.6 207.38,143.7 302.38,219.2 80.6,64.1 174.1,117 272.7,148.1 5.7,33.7 11.8,66.9 18.2,99.3 41.5,211.4 103.5,428.5 207.1,618.4 99.1,181.5 241.2,343 438.6,418.2 181.4,69.1 382.1,59.5 545.9,-48 46.4,-30.4 49.5,-102.8 17.5,-143.5 -36,-46.1 -97.3,-47.8 -143.5,-17.6 -126,82.8 -302.2,55.5 -425.4,-19.2 -171.1,-103.7 -268.7,-291.4 -335.9,-473.1 -48,-129.6 -84.1,-263.6 -108.7,-399.5 127.2,1.2 252.3,-33.7 356.7,-115.7 142.4,-111.9 235.9,-303.7 187.7,-485.3 -43.1,-162.3 -191.2,-286.4 -357.4,-307.4 -212.3,-26.7 -362.7,137.9 -407.4,331.6 -22.7,98.4 -27,203.1 -21,308 -85.1,-45.8 -160.3,-109.8 -236,-175 -141.7,-121.8 -306.88,-204.1 -497.36,-163.2 -158.94,34.1 -296.92,124.6 -427.11,218.1 -107.28,77 19.54,237.4 125.97,161"
           style="fill:#b6d6d0;fill-opacity:1;fill-rule:nonzero;stroke:none"
           id="path98" />
        <path
           d="m 4347.16,11896.7 c -162.75,139.7 -378.52,208.1 -592.03,192 -198.59,-15.1 -369.77,-117.3 -540.33,-210.5 -169.17,-92.4 -336.9,-163.8 -532.83,-122.8 -186.09,38.9 -362.33,158.8 -485.66,301.3 -130.02,150.3 -220.04,341.6 -199.62,544 13.17,130.5 -189.1,160.2 -202.34,29 -43,-426.2 255.78,-812.5 623.26,-995.2 206.15,-102.5 435.55,-126.1 653.73,-49.1 186.09,65.6 344.89,189.1 529.06,259.2 212.41,80.8 447.01,40.1 619.61,-108 100.12,-85.9 226.81,74.6 127.15,160.1"
           style="fill:#efcee1;fill-opacity:1;fill-rule:nonzero;stroke:none"
           id="path100" />
      </g>
    </pattern>
  </defs>
  <sodipodi:namedview
     id="namedview4"
     pagecolor="#ffffff"
     bordercolor="#000000"
     borderopacity="0.25"
     inkscape:showpageshadow="2"
     inkscape:pageopacity="0.0"
     inkscape:pagecheckerboard="0"
     inkscape:deskcolor="#d1d1d1" />
  <g
     id="g8"
     inkscape:groupmode="layer"
     inkscape:label="ink_ext_XXXXXX"
     transform="matrix(1.3333333,0,0,-1.3333333,0,1066.6667)">
    <g
       id="g10"
       transform="scale(0.1)">
      <path
         d="M 0,0 V 8000 H 12000 V 0 H 0"
         style="fill:#f9f6ef;fill-opacity:1;fill-rule:nonzero;stroke:none"
         id="path12" />
      <path
         d="M 0,0 V 8000 H 12000 V 0 H 0"
         style="fill:url(#pattern104);fill-opacity:1;fill-rule:nonzero;stroke:none"
         id="path106" />
    </g>
  </g>
</svg>
