<svg version="1.2" xmlns="http://www.w3.org/2000/svg" viewBox="0 0 500 500" width="500" height="500">
	<title>1534932_218127-P17MO2-176</title>
	<defs>
		<clipPath clipPathUnits="userSpaceOnUse" id="cp1">
			<path d="m317.72 230h-174.88l-2.84-160h180.55z"/>
		</clipPath>
	</defs>
	<style>
		tspan { white-space:pre } 
		.s0 { fill: #e2e2de } 
		.s1 { fill: #8aced6 } 
		.s2 { fill: #79b9bc } 
		.s3 { fill: #67c17e } 
		.s4 { fill: #4c594f } 
		.s5 { fill: #e8b031 } 
		.s6 { fill: #ffd93b } 
		.s7 { fill: #fce37c } 
		.s8 { opacity: .6;fill: #f7d64b } 
		.s9 { fill: #84613a } 
		.s10 { fill: #543720 } 
		.s11 { fill: #ddb88c } 
		.s12 { fill: #c9a681 } 
		.t13 { font-size: 68px;fill: #563112;font-family: "Bebas" } 
		.t14 { font-size: 40px;fill: #563112;font-family: "Bebas" } 
		.t15 { font-size: 11px;fill: #231206;font-family: "Bebas" } 
		.s16 { fill: #a0e6ea } 
		.s17 { fill: #fffeff } 
		.s18 { fill: #c4c080 } 
		.s19 { fill: #e2e098 } 
		.s20 { fill: #f4f1b8 } 
	</style>
	<g id="Objects">
		<path id="&lt;Path&gt;" class="s0" d="m420.3 408.8c0 5.1-76 9.2-169.7 9.2-93.7 0-169.6-4.1-169.6-9.2 0-5 75.9-9.1 169.6-9.1 93.7 0 169.7 4.1 169.7 9.1z"/>
		<g id="&lt;Group&gt;">
			<path id="&lt;Path&gt;" class="s1" d="m256.1 301.5c-0.5 1.9-14.5 4.9-27.6-9.9l-9.6 16.8c0 0 8.8 16.8 39.1 13.2 0 0-1.5-22-1.9-20.1z"/>
			<g id="&lt;Group&gt;">
				<g id="&lt;Group&gt;">
					<path id="&lt;Path&gt;" class="s2" d="m398.1 357.1c-12.1 6.5-15.5 21.2-17.5 28.6-1.5 5.7 1.5 20.3-6.3 21.8-8.2 1.6-12.8-7.2-13.5-13.7-0.9-7.8-1-15.6-1-23.7 12.7-4.3 19.1-20.8 38.3-13z"/>
					<path id="&lt;Path&gt;" class="s2" d="m264.9 357.1c12.1 6.5 15.5 21.2 17.5 28.6 1.5 5.7-1.5 20.3 6.3 21.8 8.2 1.6 12.8-7.2 13.5-13.7 0.9-7.8 1-15.6 1-23.7-12.7-4.3-19.1-20.8-38.3-13z"/>
				</g>
				<g id="&lt;Group&gt;">
					<path id="&lt;Path&gt;" class="s1" d="m241.8 295.6c-0.4 28.1 12 55.7 35.5 74.7 8.8 7.1 20.2 13 31.3 15.7 41.5 10 86.9-11.3 106.6-49 5.1-9.6 8.6-21.2 9.9-32 3.4-29-6.5-58.4-28.5-78.1-7.6-6.8-17.7-13.3-27.4-17-42.3-15.9-91.7 1-114.6 40.4-8.4 14.4-12.5 29.9-12.8 45.3z"/>
					<path id="&lt;Path&gt;" class="s3" d="m381.6 295.9c1.8-2.6 3.8-5.5 5.2-8.3 0.5-0.9 0.9-2.5 0.8-3.5-0.3-1.5-2.2-2.2-2.6-3.4-0.6-1.9 2.4-5.5 3.7-7.3 2.1-2.8 3.5-4.7 3.6-8.2 0.1-5.9-2.2-15.2-7.1-19.1-1.8-1.5-5.5-2.5-7.7-2.2-3.1 0.3-5.7 3.6-7.9 5.7-2 2-3.4 4.2-6.2 5.3-2.4 0.9-5.3 1.1-7.7 1.9-3.9 1.2-8 0.6-11.8 1.9-2.8 0.9-6 1.6-8.2 3.5-2.5 2.1-5.9 3.8-7.7 6.5-1.5 2.3-2.1 3.3-4.9 4.1-2.2 0.7-3.4 0.9-4.7 2.8-1.6 2.2-2.7 5.9-1.9 8.6 0.5 1.7 1.1 2.9 2.5 4.1 2.9 2.7 6 0.7 9.4 1.8 5.4 1.8 6.1 7.2 7.3 11.8 1.3 5.3 8.3 9.9 11.6 14.2 3.3 4.3 5.7 9.3 9 13.7 3.3 4.5 8.5 11.3 14.8 10 7.5-1.5 10-11.4 8.7-17.8-0.7-3.8-3.2-6.8-4.3-10.4-1.1-3.6 0.3-6.8 2.2-9.9 1.2-2 2.6-3.8 3.9-5.8z"/>
					<path id="&lt;Path&gt;" class="s3" d="m341.6 330.7c-5.6 5.1-0.9 18.2 4.4 21.6 4 2.5 16.4 3.8 14.7-4.3-0.8-4-13.7-22.3-19.1-17.3z"/>
					<path id="&lt;Path&gt;" class="s3" d="m352 246.4c-0.8 0.8-1.6 1.7-2.8 2.2-2 0.9-4.4 0-6.4 0.6-8.6 2.8-11.1 12.4-17.4 17.8-4.9 4.4-11.2 7-13.3 14.1-1.1 3.6 1.3 7.1-0.8 10.5-1.5 2.3-4.4 3.4-5.6 5.7-1.9 3.4-0.7 7.7-1.7 11.3-1.4 4.6-2 11.3-7.8 12.4-0.8 0.1-2-0.2-2.8 0.1-0.3 0.2-0.5 1-0.8 1.1-1.9 0.5-2.1 0.2-3.3-1.8-1.9-3.2-0.7-5.4-0.7-8.8 0-3.3 0.4-6.9 0-10.1-0.3-2.3-1.4-7.4-4.1-7.7-1.4-0.2-3.7 1.2-4.9 1.8-2.6 1.2-1.6 1-2.8 3.6-1.2 2.3-3.5 1.9-5.4 3.3-1.3 1.1-1.9 2.7-2.3 4.3-0.8 2.9-2.2 5.3-4.7 7.3-1.5 1.2-3 1.6-4 3.4-0.9 1.4-1.4 2.7-2.4 4.1-1.8 2.6-5.1 5.2-6.2 8.2-2.1-0.4-2.7-5.2-2.8-7-0.1-4.4-0.6-8.6-0.6-13 0-3.3 0.2-6.4-0.6-9.5-0.5-2.3-1-5.1-0.4-7.5 0.4-1.9 1.7-4 2.3-6 1.5-4.9 2.5-9.9 3.9-14.8 0.6-2.5 1.9-4.3 3.1-6.5 1.7-3.2 2.7-6.8 5.2-9.4 3.4-3.8 8-5.1 11.9-7.8 2.5-1.6 3-3.8 3-6.9 0-3.4 0.5-6 1.9-9 1.8-3.9 2.4-7.2 6.5-9.4 4-2.1 8.8-2.6 12.9-4.7 3.9-2 8.1-1.9 12.4-1.9 5.9 0 12.2-0.6 18.1 0.2 3.5 0.4 8.3 1.2 11.6 0 0.9-0.4 1.6-1.1 2.8-1.4 1.2-0.3 2.7-0.4 4.1-0.5 9.2-0.9 22 3.4 24 13.7 2.6 12.8-10 12.2-17 16.2-0.8 0.4-1.5 1.1-2.1 1.8z"/>
					<path id="&lt;Path&gt;" class="s3" d="m381.6 236.8c2.3 0 4.1-4.2 5.4-5.9 1.2-1.7 4.3-5.4 3.4-7.7-1.1-2.8-6.8-4.4-9.4-4.9-1.8-0.3-7.5-2-8.6 0.2-1.4 2.7 3 4.6 4.1 6.5 2 3.2 2.1 8.3 3.1 11.6-0.1-0.6-0.5-1.2-0.9-1.6 0 0 2.9 1.8 2.9 1.8z"/>
				</g>
				<g id="&lt;Group&gt;">
					<path id="&lt;Path&gt;" class="s4" d="m294.1 281c-9.8-0.3-14.3-10.2-14.4-18.8-0.1-1.9 2.9-2.3 2.9-0.4 0.1 7 3 15.4 11 16.2 8.9 0.9 13.8-9.4 15.3-16.4 0.4-1.9 3.3-1.5 2.9 0.3-1.8 8.7-7.4 19.3-17.7 19.1z"/>
					<path id="&lt;Path&gt;" class="s4" d="m371.8 281c9.8-0.3 14.3-10.2 14.4-18.8 0-1.9-2.9-2.3-2.9-0.4-0.1 7-3 15.4-11 16.2-8.9 0.9-13.8-9.4-15.3-16.4-0.4-1.9-3.4-1.5-3 0.3 1.9 8.7 7.5 19.3 17.8 19.1z"/>
				</g>
				<path id="&lt;Path&gt;" class="s4" d="m295.4 302.8c7.5 14.3 22.7 21.7 38.6 20.1 15.7-1.6 29.5-11.8 35-26.7 0.6-1.8 3.4-0.9 2.7 0.9-5.8 16.2-20.8 27-37.8 28.7-16.9 1.7-33.2-6.5-41.1-21.7-0.9-1.7 1.8-3 2.6-1.3z"/>
			</g>
			<g id="&lt;Group&gt;">
				<g id="&lt;Group&gt;">
					<path id="&lt;Path&gt;" class="s5" d="m264.8 229.5c0 0-1.6 15.5 48.6 17.1 50.3 1.6 91.1-15.4 91.1-15.4z"/>
					<path id="&lt;Path&gt;" class="s5" d="m268.3 225.7c0 0 89.3 8 134.1 0 0 0 1.8-68.2-67-67.4-68.9 0.7-67.1 67.4-67.1 67.4z"/>
					<path id="&lt;Path&gt;" class="s6" d="m348.2 157.1l-15.4-0.5c-19.4 18.6-24.5 66.3-24.5 66.3l36.6 1.4c-3.6-46.6 3.3-67.2 3.3-67.2z"/>
					<path id="&lt;Path&gt;" class="s7" d="m348.2 157c0 0-9.3 32-3.7 61h2.9c0 0-3.7-37.2 4.3-58.6z"/>
					<path id="&lt;Path&gt;" class="s6" d="m403 216.7l1.5 14.5c0 0-47.4 8.4-139.7-1.7l1.6-15.4c0 0 82.9 6.4 136.6 2.6z"/>
					<path id="&lt;Path&gt;" class="s6" d="m293.3 244.2c0 0 45.6 9 111.2-13l0.2 3.3c0 0-63.4 20.6-111.4 9.7z"/>
					<path id="&lt;Path&gt;" class="s8" d="m359 161.2c-0.8 4-0.9 8.8-0.9 13.3-0.1 17.6 13.5 35.2 32.5 30.8 2.9-0.7 5.6-1.8 8.1-3.3-4.7-15.3-15.4-33.7-39.7-40.8z"/>
				</g>
			</g>
			<g id="&lt;Group&gt;">
				<path id="&lt;Path&gt;" class="s9" d="m237 319c0 3.9-3.1 7-7 7-3.9 0-7-3.1-7-7v-250c0-3.9 3.1-7 7-7 3.9 0 7 3.1 7 7z"/>
				<path id="&lt;Path&gt;" class="s10" d="m237.4 236.9v-140.9h-14.2v140.9z"/>
				<path id="&lt;Path&gt;" class="s11" d="m317.7 230h-174.9l-2.8-160h180.6z"/>
				<g id="&lt;Clip Group&gt;" clip-path="url(#cp1)">
					<path id="&lt;Path&gt;" class="s12" d="m268.4 35.6c-12.9 12.2-25.8 24.4-39.7 35.5-14.2 11.4-29.6 21.1-45.4 30.1-16.5 9.3-33.6 17.7-50.6 26.3-8 4-16.2 7.5-24.5 10.8-4.4 1.6-8.7 3.1-13.1 4.6-2.3 0.8-5.2 1.3-6.5 3.6-0.9 1.6 1.7 2.8 2.6 1.2 0.6-1.1 3.8-1.8 4.9-2.1q3.2-1.1 6.5-2.3 6.6-2.3 13.1-5c8.4-3.4 16.4-7.4 24.5-11.5 16.1-8 32.2-16.2 47.8-25.1 15.8-9 30.9-19 45-30.4 13.1-10.6 25.3-22.3 37.6-33.9 1.3-1.3-0.9-3.1-2.2-1.8z"/>
					<path id="&lt;Path&gt;" class="s12" d="m268.4 26.1c-12.9 12.3-25.8 24.4-39.7 35.6-14.2 11.3-29.6 21.1-45.4 30-16.5 9.4-33.6 17.7-50.6 26.3-8 4.1-16.2 7.6-24.5 10.8-4.4 1.7-8.7 3.2-13.1 4.7-2.3 0.7-5.2 1.3-6.5 3.5-0.9 1.6 1.7 2.8 2.6 1.2 0.6-1.1 3.8-1.7 4.9-2.1q3.2-1.1 6.5-2.2 6.6-2.4 13.1-5c8.4-3.4 16.4-7.5 24.5-11.5 16.1-8.1 32.2-16.2 47.8-25.1 15.8-9 30.9-19 45-30.4 13.1-10.7 25.3-22.3 37.6-34 1.3-1.2-0.9-3-2.2-1.8z"/>
					<path id="&lt;Path&gt;" class="s12" d="m268.4 17.6c-12.9 12.2-25.8 24.4-39.7 35.5-14.2 11.4-29.6 21.2-45.4 30.1-16.5 9.4-33.6 17.7-50.6 26.3-8 4.1-16.2 7.6-24.5 10.8-4.4 1.7-8.7 3.2-13.1 4.7-2.3 0.7-5.2 1.3-6.5 3.5-0.9 1.6 1.7 2.8 2.6 1.2 0.6-1.1 3.8-1.7 4.9-2.1q3.2-1.1 6.5-2.2 6.6-2.4 13.1-5c8.4-3.4 16.4-7.5 24.5-11.6 16.1-8 32.2-16.1 47.8-25 15.8-9 30.9-19 45-30.5 13.1-10.6 25.3-22.2 37.6-33.9 1.3-1.2-0.9-3-2.2-1.8z"/>
					<path id="&lt;Path&gt;" class="s12" d="m203.8 180.3c-15.1-9.5-33.4-10.1-50.7-8.2-17.8 2-35.1 6.5-50.8 15.4-1.6 0.9 0.1 3.2 1.6 2.3 14.5-8.2 31.2-13.2 47.8-14.7 16.8-1.6 33.2-1.8 48.6 6.4 30.1 16.3 46.3 57.7 36.6 90.1-0.5 1.8 2.3 2.2 2.8 0.5 10-33.6-6.6-73.3-35.9-91.8z"/>
					<path id="&lt;Path&gt;" class="s12" d="m191.7 193c-11.5-5.7-24.7-5.1-37.2-4.4-13.9 0.8-28.6 3.4-39.9 12.1-1.4 1.2 0.2 3.5 1.6 2.4 10.6-8.2 24.2-10.6 37.2-11.6 12.1-0.9 24.7-1.3 36.1 3.6 21.6 9.4 29.6 34.8 28.5 56.7-0.1 1.8 2.7 2.3 2.8 0.5 1.2-23.3-7.1-48.3-29.1-59.3z"/>
					<path id="&lt;Path&gt;" class="s12" d="m187.5 209.9c-8.7-5-19.1-6.8-29-6.7-13.3 0.2-25.8 5.7-37.9 10.6-1.7 0.7-0.7 3.4 1 2.7 10.5-4.3 20.9-8.7 32.3-10.1 10.3-1.3 21.1 0.6 30.4 5 17 8.1 24.3 26.1 23.3 44.1-0.1 1.8 2.7 2.4 2.8 0.5 1-18.8-6-36.5-22.9-46.1z"/>
					<path id="&lt;Path&gt;" class="s12" d="m416.5 95.6c-53.9 13.2-108.4 23.6-162.6 35.1-25.9 5.5-51.7 11.2-77.4 17.6-25.1 6.2-50.2 12.6-73.9 23-1.6 0.7-0.7 3.4 1 2.6 23.2-10.2 47.7-16.4 72.2-22.5 27.2-6.8 54.5-12.8 82-18.6 53.2-11.3 106.7-21.6 159.7-34.5 1.7-0.4 0.7-3.1-1-2.7z"/>
					<path id="&lt;Path&gt;" class="s12" d="m391.3 73.8c-48.9 11-96.9 25.4-144.7 40.5-24.5 7.8-48.9 15.8-73.5 23.7-12 3.8-24.2 7-36.4 10.5q-8.7 2.4-17.2 5.2c-5.3 1.7-10.6 2.2-15.3 5.5-1.5 1 0.1 3.3 1.6 2.3 5-3.4 10.8-3.9 16.4-5.7 5.7-1.9 11.4-3.5 17.2-5.2 11.6-3.3 23.2-6.4 34.7-10 24-7.5 47.8-15.4 71.8-23 48-15.3 96.4-29.9 145.7-41 1.7-0.3 1.5-3.2-0.3-2.8z"/>
					<path id="&lt;Path&gt;" class="s12" d="m362.6 155.2c-23.8 10.7-47.2 22.6-68.1 38.3-10.5 7.9-20.2 16.9-28.8 26.8-6.6 7.7-14.4 17.4-13.7 28.1 0.1 1.8 3 1.5 2.8-0.3-0.7-11.3 9.2-21.7 16.2-29.5 8.2-9.2 17.7-17.3 27.6-24.6 20-14.8 42.4-26 65-36.1 1.6-0.8 0.7-3.5-1-2.7z"/>
					<path id="&lt;Path&gt;" class="s12" d="m355 175.1c-18.2 9.1-36.2 18.7-52.8 30.6-8.2 5.9-15.8 12.4-22.6 19.8-6.8 7.4-12.6 15.7-18.7 23.7-1.1 1.4 1 3.3 2.1 1.8 5.5-7.1 10.8-14.4 16.6-21.3 6.7-7.9 14.6-14.5 22.9-20.7 16.6-12.3 35.1-22 53.5-31.3 1.6-0.8 0.7-3.5-1-2.6z"/>
					<path id="&lt;Path&gt;" class="s12" d="m357.9 68.2q-1 0.3-2 0.6c0.2-0.9-0.3-1.8-1.4-1.6-16.8 3.8-33.9 7.5-51.1 5.5-11.1-1.3-30.8-6-35.4-17.8-0.7-1.7-3.3-0.7-2.7 1 4.5 11.5 20 15.7 30.8 18.3 15.6 3.9 32 1.6 47.7-1.7-47.4 14.2-94.5 29.5-141 46.2-12.7 4.6-25.3 9.3-38 13.7q-9.5 3.4-19.1 6.5c-5.1 1.7-11.3 2.7-16.1 5.2-4.9 2.5-10.9 3.8-16.2 5.3q-4.9 1.4-9.8 2.6-2.1 0.6-4.2 1c-1.7 0.4-1.6-0.3-0.8 0.8-1.1-1.4-3.4 0.2-2.3 1.7 1.7 2.1 8.8-0.9 10.7-1.4 6.8-1.8 13.6-3.7 20.2-6 22.6-7.8 45.4-15.4 67.9-23.6 54-19.6 108.7-37.3 163.8-53.6 1.7-0.5 0.7-3.2-1-2.7z"/>
					<path id="&lt;Path&gt;" class="s12" d="m365.4 139.1c-20.9 6.8-41.7 13.7-62.6 20.4-10.6 3.5-21.2 6.6-31.9 9.5-5.8 1.6-11.7 3-17.6 4.1-4.6 0.8-9.2 2.3-13.7 0.8 3.6-4.3 9-6.9 14-9.3 5.7-2.7 11.5-5.2 17.3-7.9 16.2-7.6 32.6-14.9 49.2-21.5 1.7-0.7 0.7-3.4-1-2.7-17.2 6.9-34.1 14.4-50.8 22.3-6 2.8-12.1 5.4-18.1 8.3-5.2 2.5-10.6 5.6-13.9 10.5-0.5 0.7-0.4 1.7 0.5 2.2 7.2 3.6 16.9 0.3 24.3-1.4 12-2.8 23.9-6.1 35.7-9.9 23.2-7.5 46.4-15.2 69.6-22.7 1.8-0.6 0.8-3.2-1-2.7z"/>
				</g>
				<text id="404
" style="transform: matrix(1,0,0,1,169.899,148.056)" >
					<tspan x="0" y="0" class="t13" dx="0 3 3 3" >404
</tspan>
				</text>
				<text id="ERROR
" style="transform: matrix(1,0,0,1,171.256,192.606)" >
					<tspan x="0" y="0" class="t14" dx="0 2 2 2 2 2" >ERROR
</tspan>
				</text>
				<text id="sorry, page not found
" style="transform: matrix(1,0,0,1,170.566,211.636)" >
					<tspan x="0" y="0" class="t15" dx="0 1 1 1 1 1 1 1 1 1 1 1 1 1 1 1 1 1 1 1 1 1" >sorry, page not found
</tspan>
				</text>
			</g>
			<path id="&lt;Path&gt;" class="s16" d="m232.9 306.5c2.5-7.2 1.4-15.5-10.2-16.5-9.5-0.8-10.4 10.8-8.2 19 4.1 15.6 15 7.5 18.4-2.5z"/>
			<g id="&lt;Group&gt;">
				<path id="&lt;Path&gt;" class="s17" d="m331.2 179.3c-0.2 2.3-0.2 4.2 0.2 5.1 3.3 7.1 5.6-5.6 6-7.8 0.4-2.2 3.8-14.1 1.3-15-4.6-1.6-7.2 15.1-7.5 17.7z"/>
				<path id="&lt;Path&gt;" class="s17" d="m331.8 197c0.7-0.1 1.5-0.5 2.4-1.4 4.1-4.3-3.1-7.2-4.3-2.7-0.7 2.5 0.3 4.3 1.9 4.1z"/>
			</g>
			<path id="&lt;Path&gt;" class="s2" d="m423.4 274.6c2.2 8.7 2.3 17.3 2 26.4 2.3 4.2 4.2 8.6 1.6 13.1-7.1 12.2-20.4 4-27.7 13.9-9.2 12.5 7.8 22 18.7 21.9 12.9-0.2 22.1-4.6 28.2-16.6 8.8-17.5-0.9-52.3-22.8-58.7z"/>
		</g>
		<g id="&lt;Group&gt;">
			<path id="&lt;Path&gt;" class="s18" d="m120.6 388.1q-0.6 0.9-0.8 2.2c-1.5 8.2 6.5 33.2 15 18.1 2.3-4.2 5.6-16.5 4.6-21-1.4-7.1-15.1-5.3-18.8 0.7z"/>
			<path id="&lt;Path&gt;" class="s18" d="m168 381.3c-2.7 1.6 3.7 33.5 13.6 29 7.4-3.4 4.2-22.1 2.9-28.3-0.5-2.4-1.3-7-3.8-8 0 0-12.7 7.3-12.7 7.3z"/>
			<path id="&lt;Path&gt;" class="s18" d="m192.8 312.6c-4.5 0.4-9.1-1.8-9.9-5.9-1.8-9.8 7.1-24.1 10.1-33.9 1.4-4.8 3.9-15.3 10.4-15.4 9.3 0 8.6 16.4 8 22.1-1.2 10.9-4.2 32.1-18.6 33.1z"/>
			<path id="&lt;Path&gt;" class="s18" d="m87.1 332.4c0-10.7-13.7-4.4-19.2-4.3-6.7 0-16.1-5.5-22.3-3.6-7.4 2.2-4.7 10.2-1.2 14.9 7.8 10.3 35.4 13.8 42.6 0.7 0 0 0.1-7.6 0.1-7.7z"/>
			<path id="&lt;Path&gt;" class="s19" d="m83.8 361.6c-11.6-25.6-7.2-68.4 15.2-85.6 63.3-48.6 139.1 40.5 92.9 93.5-25.6 29.4-90.2 31.4-108.1-7.9z"/>
			<path id="&lt;Path&gt;" class="s18" d="m123.8 300.5c21.4 15.2 3.2 55.9-20.9 39-7-4.9-11-14.8-10.4-23.1 1.1-14.8 18.6-25 31.3-15.9z"/>
			<g id="&lt;Group&gt;">
				<path id="&lt;Path&gt;" class="s17" d="m102.5 316.5c2.4-9.7 15.2-15.6 24.2-10.5 10 5.7 14 20.2 3.6 27.6-11.7 8.3-31.7-1.4-27.8-17.1z"/>
				<path id="&lt;Path&gt;" class="s4" d="m134.8 328.5c4.1-7.7-0.1-18-8.1-22.5-4.9-2.8-10.9-2.3-15.8 0.3-0.9 4.6 0.8 9.9 3.5 14.1 1.4 2.1 3.1 3.9 4.9 5.2 5.5 4 11.2 4.6 15.5 2.9z"/>
				<path id="&lt;Path&gt;" class="s17" d="m115.2 312.8c7.8 5.1-3.4 15.5-7.2 8.4-2.1-4 2.6-11.3 7.2-8.4z"/>
			</g>
			<g id="&lt;Group&gt;">
				<path id="&lt;Path&gt;" class="s17" d="m150.7 300c0.1-5 1.7-7.9 5.8-10.7 4.8-3.3 10.8-4.6 15.6-1.3 8.6 5.7 13.4 19.2 4.4 26.4-10.9 8.7-26.2-1-25.8-14.4z"/>
				<path id="&lt;Path&gt;" class="s4" d="m172.1 288c-3.4-2.3-7.5-2.3-11.3-0.9-0.6 4.4 1 9.3 3.6 13.3 1.4 2.1 3.1 3.9 4.9 5.2 3.7 2.7 7.6 3.9 11.1 3.8 3-7.4-1.5-16.9-8.3-21.4z"/>
				<path id="&lt;Path&gt;" class="s17" d="m164.3 294c6 0.5 5.1 8.9 0.1 10.2-8 2-9.2-10.9-0.1-10.2z"/>
			</g>
			<path id="&lt;Path&gt;" class="s20" d="m137.4 270.4c2.9 0.8 4.9 2.5 4.9 5.6-0.2 12.3-33.3 24.1-37.6 10.2-2.1-6.5 6.3-11.8 11.3-13.6 3.4-1.2 14.8-4 21.4-2.2z"/>
			<g id="&lt;Group&gt;">
				<path id="&lt;Path&gt;" class="s20" d="m96.8 353c4.3-8.7 13.3-10.7 21.7-7 19 8.4 8.6 39-10.9 28.3-6.9-3.8-14.9-12.9-10.8-21.3z"/>
				<path id="&lt;Path&gt;" class="s18" d="m102.5 360.8c-0.5-9.4 16.2-15.1 20.3-2.7 3.9 11.8-9.8 18-17.4 9.2-2-2.2-2.8-4.4-2.9-6.5z"/>
			</g>
			<path id="&lt;Path&gt;" class="s18" d="m131.8 274.5c1.1 0.4 1.9 1 2.4 1.8 4.1 7.6-16 12.1-20.3 10.9-5.9-1.8-1.1-8.4 2.2-10.4 2.7-1.6 11.2-3.8 15.7-2.3z"/>
			<g id="&lt;Group&gt;">
				<path id="&lt;Path&gt;" class="s20" d="m181.9 323.9c10.1-2.7 21 3.9 22.9 16.1 1.8 12-8.9 24.2-20.4 25.5-19.8 2.3-22.7-24.4-11.7-36 2.7-2.9 5.9-4.7 9.2-5.6z"/>
				<path id="&lt;Path&gt;" class="s18" d="m171.5 344.1c3.7-11.5 21.1-21.9 25.6-6.3 3.1 10.7-12.4 27.2-22.5 18.6-3.9-3.4-4.5-7.9-3.1-12.3z"/>
			</g>
			<g id="&lt;Group&gt;">
				<path id="&lt;Path&gt;" class="s20" d="m189.3 310.1c-7.8-9.8 2.5-23.1 10.1-10.6 5.5 9-0.8 22.5-10.1 10.6z"/>
				<path id="&lt;Path&gt;" class="s18" d="m189.5 302.6c-0.8-2.9 0.2-5.2 4.5-4 2.7 0.8 3.5 4.3 4.2 6.7 0.3 1.2 0.9 2.7 0.5 4-1.8 5.6-8-1.5-9.2-6.7z"/>
			</g>
			<path id="&lt;Path&gt;" class="s4" d="m164.7 327.5c-0.4-1.9-3.2-0.8-2.8 1 1 4.4 1.2 9.1 1.3 13.5 0.2 5.5 0.3 11.7-1.8 16.8-3.1 7.5-9-3.5-10-6.5-1.8-5.4-2.5-11.4-2.6-17.1 0-1.9-3-1.6-3 0.3 0.1 7 1.2 14.3 3.8 20.7 1.6 3.9 6.9 10.8 11.9 7.2 4.7-3.3 4.6-11.4 4.8-16.5 0.2-6.4-0.1-13.2-1.6-19.4z"/>
		</g>
		<g id="&lt;Group&gt;">
			<g id="&lt;Group&gt;">
				<path id="&lt;Path&gt;" class="s5" d="m241.8 392.2q0-0.3 0-0.7 0.1 6.8 0.2 13.7c0.1 3-0.7 5.4-2.7 7.8 1.9 1.4 6.3 1.1 8.4-0.4 6.5-4.6-3-21.8 0.1-23.5 0 0-6 3.1-6 3.1z"/>
				<path id="&lt;Path&gt;" class="s5" d="m260.3 391.4c-0.7 1.5 0.1 5.2 0.1 7.1 0.1 2.6 0.2 5.3 0.2 8-0.1 2-2.7 7-1.5 8.8 2 2.7 7.1-0.5 8.4-2.7 1.2-1.8 0.6-4.8 0.5-6.8 0-4.2-1.4-8.4-1.1-12.5z"/>
			</g>
			<g id="&lt;Group&gt;">
				<path id="&lt;Path&gt;" class="s5" d="m217.5 366.5c-1.7 2.3-2.8 4.6-5.1 6.5-2.5 2-5.4 2.4-8.4 3-3.9 0.8-7.2 4.7-3 7.6 4.7 3.4 13.1-1.3 16.7-4.4 1.7-1.4 5-4.4 4.9-6.8-0.1-1.1-4.9-6.2-5.1-5.9z"/>
				<path id="&lt;Path&gt;" class="s5" d="m289.5 377.9c-0.2 0.2 7.5 8.5 8.2 9.1 1.8 1.4 4.2 3 6.5 2.5 4-0.8 4.6-5.8 1.4-8.2-3.5-2.6-7.2-5.3-9.9-8.8 0 0-6.2 5.3-6.2 5.4z"/>
			</g>
			<path id="&lt;Path&gt;" class="s6" d="m226 377.2c-1.2 1.3-30.7-12.5-18.5-31.4 7.2-11.3 25.2-7.9 33.2 1.2-2.9-12.5 2.6-35.5 20.6-32 12.7 2.5 13.6 26.8 7.2 37.8 7-6.9 27.2-8.9 33.1 2.5 6.9 13.6-7 26.3-19.2 26.6 4.7-0.1 11.9 15.3 0.6 22.8-17.4 11.6-34.7-16.8-32.2-18.1-17.8 36.7-51.6 10.9-24.8-9.4z"/>
			<path id="&lt;Path&gt;" class="s17" d="m258.4 327.1c0-1 0.2-2 0.7-2.7 5.7-9.4 11.2 6.9 8.3 12.3-2.7 5.3-9.1-3.7-9-9.6z"/>
			<path id="&lt;Path&gt;" class="s17" d="m280.8 354.6q0-0.1 0-0.2c-2.3-7.1 15.1-5.6 12.7 0.4-1.8 4.2-11.1 4.2-12.7-0.2z"/>
			<g id="&lt;Group&gt;">
				<path id="&lt;Path&gt;" class="s4" d="m243.7 354.2c-4.9-1.2-8 4.2-7.7 8.3 0.1 1.5 2.4 1.3 2.3-0.2-0.3-3.1 2-7 5.6-5.7 2.7 1 2.7 5.2 2.7 7.5 0 1.4 2.3 1.2 2.3-0.2 0-4-0.8-8.6-5.2-9.7z"/>
				<path id="&lt;Path&gt;" class="s4" d="m265.5 356.2c-5.2-1.1-8.6 4.4-8.2 9 0.1 1.5 2.4 1.3 2.2-0.2-0.2-3 2.3-8.2 6-6.4 2.3 1 2.4 5.3 2.4 7.4 0 1.4 2.3 1.2 2.3-0.3-0.1-3.2-0.8-8.7-4.7-9.5z"/>
				<path id="&lt;Path&gt;" class="s4" d="m268.9 368.9c-8.4 8.7-24.2 9.6-32.3 0.1-1-1.1-2.9 0.2-1.9 1.3 9.1 10.6 26.5 9.9 36 0.1 1-1.1-0.8-2.5-1.8-1.5z"/>
			</g>
		</g>
	</g>
</svg>